<mxfile host="app.diagrams.net" agent="Mozilla/5.0 (Windows NT 10.0; Win64; x64; rv:138.0) Gecko/20100101 Firefox/138.0" version="27.0.1">
  <diagram id="C5RBs43oDa-KdzZeNtuy" name="Page-1">
    <mxGraphModel dx="2864" dy="1160" grid="1" gridSize="10" guides="1" tooltips="1" connect="1" arrows="1" fold="1" page="1" pageScale="1" pageWidth="827" pageHeight="1169" math="0" shadow="0">
      <root>
        <mxCell id="WIyWlLk6GJQsqaUBKTNV-0" />
        <mxCell id="WIyWlLk6GJQsqaUBKTNV-1" parent="WIyWlLk6GJQsqaUBKTNV-0" />
        <mxCell id="WIyWlLk6GJQsqaUBKTNV-2" value="" style="rounded=0;html=1;jettySize=auto;orthogonalLoop=1;fontSize=11;endArrow=block;endFill=0;endSize=8;strokeWidth=1;shadow=0;labelBackgroundColor=none;edgeStyle=orthogonalEdgeStyle;" parent="WIyWlLk6GJQsqaUBKTNV-1" source="WIyWlLk6GJQsqaUBKTNV-3" target="WIyWlLk6GJQsqaUBKTNV-6" edge="1">
          <mxGeometry relative="1" as="geometry" />
        </mxCell>
        <mxCell id="WIyWlLk6GJQsqaUBKTNV-3" value="Lamp doesn&#39;t work" style="rounded=1;whiteSpace=wrap;html=1;fontSize=12;glass=0;strokeWidth=1;shadow=0;" parent="WIyWlLk6GJQsqaUBKTNV-1" vertex="1">
          <mxGeometry x="160" y="80" width="120" height="40" as="geometry" />
        </mxCell>
        <mxCell id="WIyWlLk6GJQsqaUBKTNV-4" value="Yes" style="rounded=0;html=1;jettySize=auto;orthogonalLoop=1;fontSize=11;endArrow=block;endFill=0;endSize=8;strokeWidth=1;shadow=0;labelBackgroundColor=none;edgeStyle=orthogonalEdgeStyle;" parent="WIyWlLk6GJQsqaUBKTNV-1" source="WIyWlLk6GJQsqaUBKTNV-6" target="WIyWlLk6GJQsqaUBKTNV-10" edge="1">
          <mxGeometry y="20" relative="1" as="geometry">
            <mxPoint as="offset" />
          </mxGeometry>
        </mxCell>
        <mxCell id="WIyWlLk6GJQsqaUBKTNV-5" value="No" style="edgeStyle=orthogonalEdgeStyle;rounded=0;html=1;jettySize=auto;orthogonalLoop=1;fontSize=11;endArrow=block;endFill=0;endSize=8;strokeWidth=1;shadow=0;labelBackgroundColor=none;" parent="WIyWlLk6GJQsqaUBKTNV-1" source="WIyWlLk6GJQsqaUBKTNV-6" target="WIyWlLk6GJQsqaUBKTNV-7" edge="1">
          <mxGeometry y="10" relative="1" as="geometry">
            <mxPoint as="offset" />
          </mxGeometry>
        </mxCell>
        <mxCell id="WIyWlLk6GJQsqaUBKTNV-6" value="Lamp&lt;br&gt;plugged in?" style="rhombus;whiteSpace=wrap;html=1;shadow=0;fontFamily=Helvetica;fontSize=12;align=center;strokeWidth=1;spacing=6;spacingTop=-4;" parent="WIyWlLk6GJQsqaUBKTNV-1" vertex="1">
          <mxGeometry x="170" y="170" width="100" height="80" as="geometry" />
        </mxCell>
        <mxCell id="WIyWlLk6GJQsqaUBKTNV-7" value="Plug in lamp" style="rounded=1;whiteSpace=wrap;html=1;fontSize=12;glass=0;strokeWidth=1;shadow=0;" parent="WIyWlLk6GJQsqaUBKTNV-1" vertex="1">
          <mxGeometry x="320" y="190" width="120" height="40" as="geometry" />
        </mxCell>
        <mxCell id="WIyWlLk6GJQsqaUBKTNV-8" value="No" style="rounded=0;html=1;jettySize=auto;orthogonalLoop=1;fontSize=11;endArrow=block;endFill=0;endSize=8;strokeWidth=1;shadow=0;labelBackgroundColor=none;edgeStyle=orthogonalEdgeStyle;" parent="WIyWlLk6GJQsqaUBKTNV-1" source="WIyWlLk6GJQsqaUBKTNV-10" target="WIyWlLk6GJQsqaUBKTNV-11" edge="1">
          <mxGeometry x="0.3333" y="20" relative="1" as="geometry">
            <mxPoint as="offset" />
          </mxGeometry>
        </mxCell>
        <mxCell id="WIyWlLk6GJQsqaUBKTNV-9" value="Yes" style="edgeStyle=orthogonalEdgeStyle;rounded=0;html=1;jettySize=auto;orthogonalLoop=1;fontSize=11;endArrow=block;endFill=0;endSize=8;strokeWidth=1;shadow=0;labelBackgroundColor=none;" parent="WIyWlLk6GJQsqaUBKTNV-1" source="WIyWlLk6GJQsqaUBKTNV-10" target="WIyWlLk6GJQsqaUBKTNV-12" edge="1">
          <mxGeometry y="10" relative="1" as="geometry">
            <mxPoint as="offset" />
          </mxGeometry>
        </mxCell>
        <mxCell id="WIyWlLk6GJQsqaUBKTNV-10" value="Bulb&lt;br&gt;burned out?" style="rhombus;whiteSpace=wrap;html=1;shadow=0;fontFamily=Helvetica;fontSize=12;align=center;strokeWidth=1;spacing=6;spacingTop=-4;" parent="WIyWlLk6GJQsqaUBKTNV-1" vertex="1">
          <mxGeometry x="170" y="290" width="100" height="80" as="geometry" />
        </mxCell>
        <mxCell id="WIyWlLk6GJQsqaUBKTNV-11" value="Repair Lamp" style="rounded=1;whiteSpace=wrap;html=1;fontSize=12;glass=0;strokeWidth=1;shadow=0;" parent="WIyWlLk6GJQsqaUBKTNV-1" vertex="1">
          <mxGeometry x="160" y="430" width="120" height="40" as="geometry" />
        </mxCell>
        <mxCell id="WIyWlLk6GJQsqaUBKTNV-12" value="Replace Bulb" style="rounded=1;whiteSpace=wrap;html=1;fontSize=12;glass=0;strokeWidth=1;shadow=0;" parent="WIyWlLk6GJQsqaUBKTNV-1" vertex="1">
          <mxGeometry x="320" y="310" width="120" height="40" as="geometry" />
        </mxCell>
        <mxCell id="Y7cw4CY2JgSgQnjSolrv-0" value="Identifikation" style="swimlane;whiteSpace=wrap;html=1;" vertex="1" parent="WIyWlLk6GJQsqaUBKTNV-1">
          <mxGeometry x="-800" y="30" width="220" height="70" as="geometry" />
        </mxCell>
        <mxCell id="Y7cw4CY2JgSgQnjSolrv-1" value="ToIfcInstance" style="rounded=1;whiteSpace=wrap;html=1;fontSize=12;glass=0;strokeWidth=1;shadow=0;" vertex="1" parent="Y7cw4CY2JgSgQnjSolrv-0">
          <mxGeometry x="20" y="30" width="180" height="30" as="geometry" />
        </mxCell>
        <mxCell id="Y7cw4CY2JgSgQnjSolrv-2" value="DatenkollektivTyp" style="swimlane;whiteSpace=wrap;html=1;" vertex="1" parent="WIyWlLk6GJQsqaUBKTNV-1">
          <mxGeometry x="-740" y="130" width="220" height="70" as="geometry" />
        </mxCell>
        <mxCell id="Y7cw4CY2JgSgQnjSolrv-3" value="ToIfcInstance" style="rounded=1;whiteSpace=wrap;html=1;fontSize=12;glass=0;strokeWidth=1;shadow=0;" vertex="1" parent="Y7cw4CY2JgSgQnjSolrv-2">
          <mxGeometry x="20" y="30" width="180" height="30" as="geometry" />
        </mxCell>
        <mxCell id="Y7cw4CY2JgSgQnjSolrv-4" value="" style="endArrow=classic;html=1;rounded=0;entryX=0;entryY=0.5;entryDx=0;entryDy=0;edgeStyle=orthogonalEdgeStyle;" edge="1" parent="WIyWlLk6GJQsqaUBKTNV-1" target="Y7cw4CY2JgSgQnjSolrv-2">
          <mxGeometry width="50" height="50" relative="1" as="geometry">
            <mxPoint x="-760" y="90" as="sourcePoint" />
            <mxPoint x="-430" y="110" as="targetPoint" />
            <Array as="points">
              <mxPoint x="-760" y="165" />
            </Array>
          </mxGeometry>
        </mxCell>
        <mxCell id="Y7cw4CY2JgSgQnjSolrv-5" value="HydraulikdatenType" style="swimlane;whiteSpace=wrap;html=1;" vertex="1" parent="WIyWlLk6GJQsqaUBKTNV-1">
          <mxGeometry x="-676" y="230" width="220" height="70" as="geometry" />
        </mxCell>
        <mxCell id="Y7cw4CY2JgSgQnjSolrv-6" value="ToIfcInstance" style="rounded=1;whiteSpace=wrap;html=1;fontSize=12;glass=0;strokeWidth=1;shadow=0;" vertex="1" parent="Y7cw4CY2JgSgQnjSolrv-5">
          <mxGeometry x="20" y="30" width="180" height="30" as="geometry" />
        </mxCell>
        <mxCell id="Y7cw4CY2JgSgQnjSolrv-7" value="" style="endArrow=classic;html=1;rounded=0;entryX=0;entryY=0.5;entryDx=0;entryDy=0;edgeStyle=orthogonalEdgeStyle;" edge="1" parent="WIyWlLk6GJQsqaUBKTNV-1">
          <mxGeometry width="50" height="50" relative="1" as="geometry">
            <mxPoint x="-636" y="290" as="sourcePoint" />
            <mxPoint x="-616" y="365" as="targetPoint" />
            <Array as="points">
              <mxPoint x="-636" y="365" />
            </Array>
          </mxGeometry>
        </mxCell>
        <mxCell id="Y7cw4CY2JgSgQnjSolrv-8" value="RechennetzType" style="swimlane;whiteSpace=wrap;html=1;" vertex="1" parent="WIyWlLk6GJQsqaUBKTNV-1">
          <mxGeometry x="-610" y="330" width="220" height="70" as="geometry" />
        </mxCell>
        <mxCell id="Y7cw4CY2JgSgQnjSolrv-9" value="ToIfcInstance" style="rounded=1;whiteSpace=wrap;html=1;fontSize=12;glass=0;strokeWidth=1;shadow=0;" vertex="1" parent="Y7cw4CY2JgSgQnjSolrv-8">
          <mxGeometry x="20" y="30" width="180" height="30" as="geometry" />
        </mxCell>
        <mxCell id="Y7cw4CY2JgSgQnjSolrv-10" value="" style="endArrow=classic;html=1;rounded=0;edgeStyle=orthogonalEdgeStyle;" edge="1" parent="WIyWlLk6GJQsqaUBKTNV-1">
          <mxGeometry width="50" height="50" relative="1" as="geometry">
            <mxPoint x="-570" y="390" as="sourcePoint" />
            <mxPoint x="-320" y="465" as="targetPoint" />
            <Array as="points">
              <mxPoint x="-570" y="465" />
            </Array>
          </mxGeometry>
        </mxCell>
        <mxCell id="Y7cw4CY2JgSgQnjSolrv-11" value="GebietType" style="swimlane;whiteSpace=wrap;html=1;" vertex="1" parent="WIyWlLk6GJQsqaUBKTNV-1">
          <mxGeometry x="-620" y="480" width="220" height="70" as="geometry" />
        </mxCell>
        <mxCell id="Y7cw4CY2JgSgQnjSolrv-12" value="ToIfcInstance" style="rounded=1;whiteSpace=wrap;html=1;fontSize=12;glass=0;strokeWidth=1;shadow=0;" vertex="1" parent="Y7cw4CY2JgSgQnjSolrv-11">
          <mxGeometry x="20" y="30" width="180" height="30" as="geometry" />
        </mxCell>
        <mxCell id="Y7cw4CY2JgSgQnjSolrv-13" value="" style="endArrow=classic;html=1;rounded=0;entryX=0;entryY=0.5;entryDx=0;entryDy=0;edgeStyle=orthogonalEdgeStyle;" edge="1" parent="WIyWlLk6GJQsqaUBKTNV-1">
          <mxGeometry width="50" height="50" relative="1" as="geometry">
            <mxPoint x="-580" y="540" as="sourcePoint" />
            <mxPoint x="-560" y="615" as="targetPoint" />
            <Array as="points">
              <mxPoint x="-580" y="615" />
            </Array>
          </mxGeometry>
        </mxCell>
        <mxCell id="Y7cw4CY2JgSgQnjSolrv-14" value="FlaechenType" style="swimlane;whiteSpace=wrap;html=1;" vertex="1" parent="WIyWlLk6GJQsqaUBKTNV-1">
          <mxGeometry x="-640" y="640" width="220" height="70" as="geometry" />
        </mxCell>
        <mxCell id="Y7cw4CY2JgSgQnjSolrv-15" value="ToIfcInstance" style="rounded=1;whiteSpace=wrap;html=1;fontSize=12;glass=0;strokeWidth=1;shadow=0;" vertex="1" parent="Y7cw4CY2JgSgQnjSolrv-14">
          <mxGeometry x="20" y="30" width="180" height="30" as="geometry" />
        </mxCell>
        <mxCell id="Y7cw4CY2JgSgQnjSolrv-16" value="" style="endArrow=classic;html=1;rounded=0;entryX=0;entryY=0.5;entryDx=0;entryDy=0;edgeStyle=orthogonalEdgeStyle;" edge="1" parent="WIyWlLk6GJQsqaUBKTNV-1">
          <mxGeometry width="50" height="50" relative="1" as="geometry">
            <mxPoint x="-600" y="700" as="sourcePoint" />
            <mxPoint x="-580" y="775" as="targetPoint" />
            <Array as="points">
              <mxPoint x="-600" y="775" />
            </Array>
          </mxGeometry>
        </mxCell>
        <mxCell id="Y7cw4CY2JgSgQnjSolrv-17" value="HydraulikdatenTypesystembelastung" style="swimlane;whiteSpace=wrap;html=1;" vertex="1" parent="WIyWlLk6GJQsqaUBKTNV-1">
          <mxGeometry x="-640" y="800" width="220" height="70" as="geometry" />
        </mxCell>
        <mxCell id="Y7cw4CY2JgSgQnjSolrv-18" value="Kein Array? in HydraulikdatenType" style="rounded=1;whiteSpace=wrap;html=1;fontSize=12;glass=0;strokeWidth=1;shadow=0;fillColor=#f8cecc;strokeColor=#b85450;" vertex="1" parent="Y7cw4CY2JgSgQnjSolrv-17">
          <mxGeometry x="20" y="30" width="180" height="30" as="geometry" />
        </mxCell>
        <mxCell id="Y7cw4CY2JgSgQnjSolrv-19" value="" style="endArrow=classic;html=1;rounded=0;entryX=0;entryY=0.5;entryDx=0;entryDy=0;edgeStyle=orthogonalEdgeStyle;" edge="1" parent="WIyWlLk6GJQsqaUBKTNV-1">
          <mxGeometry width="50" height="50" relative="1" as="geometry">
            <mxPoint x="-600" y="860" as="sourcePoint" />
            <mxPoint x="-580" y="935" as="targetPoint" />
            <Array as="points">
              <mxPoint x="-600" y="935" />
            </Array>
          </mxGeometry>
        </mxCell>
        <mxCell id="Y7cw4CY2JgSgQnjSolrv-25" value="BerechnungType" style="swimlane;whiteSpace=wrap;html=1;" vertex="1" parent="WIyWlLk6GJQsqaUBKTNV-1">
          <mxGeometry x="-650" y="950" width="220" height="70" as="geometry" />
        </mxCell>
        <mxCell id="Y7cw4CY2JgSgQnjSolrv-26" value="ToIfcInstance" style="rounded=1;whiteSpace=wrap;html=1;fontSize=12;glass=0;strokeWidth=1;shadow=0;" vertex="1" parent="Y7cw4CY2JgSgQnjSolrv-25">
          <mxGeometry x="20" y="30" width="180" height="30" as="geometry" />
        </mxCell>
        <mxCell id="Y7cw4CY2JgSgQnjSolrv-27" value="" style="endArrow=classic;html=1;rounded=0;entryX=0;entryY=0.5;entryDx=0;entryDy=0;edgeStyle=orthogonalEdgeStyle;" edge="1" parent="WIyWlLk6GJQsqaUBKTNV-1">
          <mxGeometry width="50" height="50" relative="1" as="geometry">
            <mxPoint x="-610" y="1010" as="sourcePoint" />
            <mxPoint x="-590" y="1085" as="targetPoint" />
            <Array as="points">
              <mxPoint x="-610" y="1085" />
            </Array>
          </mxGeometry>
        </mxCell>
        <mxCell id="Y7cw4CY2JgSgQnjSolrv-28" value="HydraulikObjektType" style="swimlane;whiteSpace=wrap;html=1;" vertex="1" parent="WIyWlLk6GJQsqaUBKTNV-1">
          <mxGeometry x="-320" y="430" width="220" height="70" as="geometry" />
        </mxCell>
        <mxCell id="Y7cw4CY2JgSgQnjSolrv-29" value="ToIfcInstance" style="rounded=1;whiteSpace=wrap;html=1;fontSize=12;glass=0;strokeWidth=1;shadow=0;" vertex="1" parent="Y7cw4CY2JgSgQnjSolrv-28">
          <mxGeometry x="20" y="30" width="180" height="30" as="geometry" />
        </mxCell>
        <mxCell id="Y7cw4CY2JgSgQnjSolrv-30" value="" style="endArrow=classic;html=1;rounded=0;edgeStyle=orthogonalEdgeStyle;" edge="1" parent="WIyWlLk6GJQsqaUBKTNV-1">
          <mxGeometry width="50" height="50" relative="1" as="geometry">
            <mxPoint x="-280" y="490" as="sourcePoint" />
            <mxPoint x="-30" y="565" as="targetPoint" />
            <Array as="points">
              <mxPoint x="-280" y="565" />
            </Array>
          </mxGeometry>
        </mxCell>
      </root>
    </mxGraphModel>
  </diagram>
</mxfile>
